<svg xmlns="http://www.w3.org/2000/svg" data-name="Layer 1" fill ="#dedc26"  viewBox="0 0 32 32" id="finance-file"><path d="M24 29H8a3 3 0 0 1-3-3V12.7a3.011 3.011 0 0 1 .651-1.866l5.329-6.7A2.984 2.984 0 0 1 13.328 3H24a3 3 0 0 1 3 3v20a3 3 0 0 1-3 3ZM13.328 5a1 1 0 0 0-.783.378l-5.328 6.7A1.01 1.01 0 0 0 7 12.7V26a1 1 0 0 0 1 1h16a1 1 0 0 0 1-1V6a1 1 0 0 0-1-1Z"></path><path d="M11 13H6.13a1 1 0 1 1 0-2H11a1 1 0 0 0 1-1V4.03a1 1 0 1 1 2 0V10a3 3 0 0 1-3 3zm9 8h-8a1 1 0 0 1 0-2h8a1 1 0 0 1 0 2zm0 4h-8a1 1 0 0 1 0-2h8a1 1 0 0 1 0 2zm-1-9h-1.5a1 1 0 0 1 0-2H19a.5.5 0 0 0 0-1 2.5 2.5 0 0 1 0-5h1.5a1 1 0 0 1 0 2H19a.5.5 0 0 0 0 1 2.5 2.5 0 0 1 0 5z"></path><path d="M19 10a1 1 0 0 1-1-1V8a1 1 0 0 1 2 0v1a1 1 0 0 1-1 1zm0 7a1 1 0 0 1-1-1v-1a1 1 0 0 1 2 0v1a1 1 0 0 1-1 1z"></path></svg>