<svg xmlns="http://www.w3.org/2000/svg" viewBox="0 0 48 48"  fill ="#dedc26" id="paper-faq"> <g data-name="Paper FAQ"><path d="M42,8.94c0-.56.27-.09-8.28-8.65C33.29-.13,34.75,0,10,0A4,4,0,0,0,6,4V44a4,4,0,0,0,4,4H38a4,4,0,0,0,4-4C42,4.84,42,9.28,42,8.94ZM38.59,8H35a1,1,0,0,1-1-1V3.41ZM38,46H10a2,2,0,0,1-2-2V4a2,2,0,0,1,2-2H32V7a3,3,0,0,0,3,3h5V44A2,2,0,0,1,38,46Z"></path><path d="M20.94 22.35l.5-1.35h3.12l.5 1.35a1 1 0 0 0 1.88-.7l-3-8a1 1 0 0 0-1.88 0l-3 8A1 1 0 0 0 20.94 22.35zM23 16.85L23.81 19H22.19zM34 22.43l.27.28a1 1 0 0 0 1.42-1.42L35.43 21c.72-1.21.57-2.08.57-4a4 4 0 0 0-8 0v2A4 4 0 0 0 34 22.43zM30 17a2 2 0 0 1 4 0c0 2.92 0 2.62-.29 2.29a1 1 0 0 0-1.42 1.42l.22.22A2 2 0 0 1 30 19zM17 15a1 1 0 0 0 0-2H13a1 1 0 0 0-1 1v8a1 1 0 0 0 2 0V19h3a1 1 0 0 0 0-2H14V15zM36 26H20a1 1 0 0 0 0 2H36A1 1 0 0 0 36 26zM36 30H20a1 1 0 0 0 0 2H36A1 1 0 0 0 36 30zM16 26H12a1 1 0 0 0-1 1v4a1 1 0 0 0 1 1h4a1 1 0 0 0 1-1V27A1 1 0 0 0 16 26zm-1 4H13V28h2zM36 36H20a1 1 0 0 0 0 2H36A1 1 0 0 0 36 36zM36 40H20a1 1 0 0 0 0 2H36A1 1 0 0 0 36 40zM16 36H12a1 1 0 0 0-1 1v4a1 1 0 0 0 1 1h4a1 1 0 0 0 1-1V37A1 1 0 0 0 16 36zm-1 4H13V38h2z"></path></g></svg>